<svg id="Layer_12" data-name="Layer 12" xmlns="http://www.w3.org/2000/svg" viewBox="0 0 655.78 100"><defs><style>.cls-1{fill:#fff;}.cls-2{fill:#4fc18a;}</style></defs><path class="cls-1" d="M212.29,12.72q11.64,9.1,15.4,24.76H207.87a26,26,0,0,0-9.57-12A27.09,27.09,0,0,0,182.71,21a24.65,24.65,0,0,0-22.9,14.46,37.31,37.31,0,0,0-3.34,16.33A37,37,0,0,0,159.81,68a24.65,24.65,0,0,0,22.9,14.46A27,27,0,0,0,198.3,78a25.88,25.88,0,0,0,9.57-12h19.82q-3.75,15.66-15.4,24.76T183,99.86a46.19,46.19,0,0,1-23.89-6.09A41.47,41.47,0,0,1,143,76.71a53.36,53.36,0,0,1-5.69-24.9,53.61,53.61,0,0,1,5.69-25A41.66,41.66,0,0,1,159,9.71q10.31-6.09,24-6.09Q200.64,3.62,212.29,12.72Z"/><path class="cls-1" d="M306.53,32.26q7.64,8.45,7.63,23.7v43.1H295.42v-41q0-8.84-4.55-13.72t-12.45-4.89q-8,0-12.85,5.22t-4.82,15V99.06H241.87V0h18.88V39.76a23.61,23.61,0,0,1,9.7-11.71,28.89,28.89,0,0,1,15.6-4.22Q298.9,23.83,306.53,32.26Z"/><path class="cls-1" d="M375.87,28.38a24,24,0,0,1,9.5,11.91V24.9h18.74V99.06H385.37V83.53a24.34,24.34,0,0,1-9.5,12A28.22,28.22,0,0,1,359.8,100a31.87,31.87,0,0,1-16.86-4.55,30.77,30.77,0,0,1-11.72-13.19Q327,73.62,327,62a45.76,45.76,0,0,1,4.21-20.28,30.83,30.83,0,0,1,11.72-13.19A31.87,31.87,0,0,1,359.8,24,28.49,28.49,0,0,1,375.87,28.38ZM351.5,46.18q-5.36,5.76-5.35,15.8t5.35,15.73q5.36,5.69,14.19,5.69a18.71,18.71,0,0,0,14.13-5.82q5.55-5.83,5.55-15.6t-5.55-15.73a18.71,18.71,0,0,0-14.13-5.82Q356.86,40.43,351.5,46.18Z"/><path class="cls-1" d="M460.87,82.86v16.2H451q-12.45,0-19.08-6T425.26,73V40.83H415V24.9h10.3V6.56h18.88V24.9h16.6V40.83h-16.6V73.22q0,5.37,2.14,7.5t7.23,2.14Z"/><path class="cls-1" d="M514,82.86v16.2h-9.91q-12.45,0-19.07-6T478.41,73V40.83H468.1V24.9h10.31V6.56h18.87V24.9h16.6V40.83h-16.6V73.22q0,5.37,2.15,7.5t7.22,2.14Z"/><path class="cls-1" d="M596.61,65.6H542.26q.4,9.9,5.35,14.59a17.26,17.26,0,0,0,12.32,4.68,17.88,17.88,0,0,0,10.91-3.21A14.26,14.26,0,0,0,576.4,73h19.94a31.87,31.87,0,0,1-6.29,13.92,32.82,32.82,0,0,1-12.38,9.64,42.42,42.42,0,0,1-36.08-1.14,32.49,32.49,0,0,1-13.12-13.19q-4.68-8.55-4.68-20.21a42,42,0,0,1,4.68-20.28,32,32,0,0,1,13.12-13.19A40,40,0,0,1,560.87,24a39.14,39.14,0,0,1,19.21,4.55A32.1,32.1,0,0,1,592.79,41a36.34,36.34,0,0,1,4.49,18.14A35.57,35.57,0,0,1,596.61,65.6ZM573.52,43.51a18.16,18.16,0,0,0-12.65-4.69A18.55,18.55,0,0,0,548,43.51q-5.22,4.68-5.76,13.78h36Q578.67,48.2,573.52,43.51Z"/><path class="cls-1" d="M640.52,27.91a29.15,29.15,0,0,1,15.26-4.08V44h-5.49q-20.76,0-20.75,19.28V99.06H610.66V24.9h18.88V39.09A31,31,0,0,1,640.52,27.91Z"/><path class="cls-2" d="M54.33.66A49.67,49.67,0,0,0,12.72,77.45L0,100H54.33a49.67,49.67,0,0,0,0-99.34Zm0,79.94A29.88,29.88,0,1,1,84.21,50.72,29.81,29.81,0,0,1,54.33,80.6Z"/><path class="cls-2" d="M54.33,29.93A20.79,20.79,0,1,0,75.11,50.72,20.79,20.79,0,0,0,54.33,29.93Z"/><path class="cls-1" d="M54.33,80.59A29.89,29.89,0,0,0,84.21,50.71h-9.1A20.78,20.78,0,1,1,54.33,29.93V20.84a29.88,29.88,0,1,0,0,59.75Z"/></svg>