<svg id="Layer_12" data-name="Layer 12" xmlns="http://www.w3.org/2000/svg" viewBox="0 0 653.97 500"><defs><style>.cls-1{fill:#fff;}.cls-2{fill:#4fc18a;}</style></defs><path class="cls-1" d="M94.56,389.91q14.68,11.47,19.42,31.23H89A32.7,32.7,0,0,0,76.91,406q-8.19-5.58-19.67-5.58a31.09,31.09,0,0,0-28.87,18.24q-4.23,8.79-4.22,20.6a46.54,46.54,0,0,0,4.22,20.43,31.09,31.09,0,0,0,28.87,18.24q11.49,0,19.67-5.57A32.73,32.73,0,0,0,89,457.11h25q-4.74,19.75-19.42,31.24t-37,11.48q-17.05,0-30.14-7.68A52.24,52.24,0,0,1,7.18,470.62Q0,456.78,0,439.21q0-17.73,7.18-31.57a52.48,52.48,0,0,1,20.17-21.53q13-7.68,30.23-7.69Q79.87,378.42,94.56,389.91Z"/><path class="cls-1" d="M213.43,414.56q9.63,10.63,9.63,29.89v54.37H199.42V447.15q0-11.14-5.74-17.31T178,423.68q-10.12,0-16.21,6.58t-6.08,18.91v49.65H131.87v-125h23.81V424a29.82,29.82,0,0,1,12.24-14.77,36.4,36.4,0,0,1,19.68-5.32Q203.8,403.92,213.43,414.56Z"/><path class="cls-1" d="M300.9,409.66a30.47,30.47,0,0,1,12,15V405.27h23.64v93.55H312.89V479.23a30.84,30.84,0,0,1-12,15.11Q292.46,500,280.63,500a40.13,40.13,0,0,1-21.27-5.74,38.8,38.8,0,0,1-14.78-16.63q-5.31-10.89-5.32-25.58t5.32-25.59a38.8,38.8,0,0,1,14.78-16.63,40.22,40.22,0,0,1,21.27-5.74Q292.45,404.09,300.9,409.66Zm-30.74,22.46q-6.75,7.26-6.75,19.93t6.75,19.83q6.76,7.19,17.9,7.18a23.58,23.58,0,0,0,17.82-7.34q7-7.35,7-19.67,0-12.49-7-19.85a23.58,23.58,0,0,0-17.82-7.34Q276.91,424.86,270.16,432.12Z"/><path class="cls-1" d="M408.12,478.39v20.43H395.63q-15.7,0-24.07-7.6t-8.36-25.33V425.36h-13V405.27h13V382.14H387v23.13H408v20.09H387v40.87q0,6.75,2.7,9.45t9.12,2.71Z"/><path class="cls-1" d="M475.15,478.39v20.43H462.66q-15.71,0-24.06-7.6t-8.36-25.33V425.36h-13V405.27h13V382.14h23.81v23.13H475v20.09H454.05v40.87q0,6.75,2.7,9.45t9.12,2.71Z"/><path class="cls-1" d="M579.34,456.6H510.78q.51,12.51,6.76,18.41a21.71,21.71,0,0,0,15.53,5.91q8.26,0,13.76-4.05a18,18,0,0,0,7-11H579a40.31,40.31,0,0,1-7.94,17.56,41.48,41.48,0,0,1-15.62,12.16,53.48,53.48,0,0,1-45.5-1.44,40.85,40.85,0,0,1-16.55-16.63q-5.91-10.8-5.91-25.49t5.91-25.59a40.25,40.25,0,0,1,16.55-16.63,50.44,50.44,0,0,1,24.31-5.74q13.85,0,24.23,5.74a40.42,40.42,0,0,1,16,15.79,45.86,45.86,0,0,1,5.66,22.88A45.29,45.29,0,0,1,579.34,456.6Zm-29.13-27.86a22.86,22.86,0,0,0-16-5.91A23.4,23.4,0,0,0,518,428.74q-6.58,5.91-7.26,17.39H556.2Q556.71,434.66,550.21,428.74Z"/><path class="cls-1" d="M634.72,409.07A36.82,36.82,0,0,1,654,403.92v25.5H647q-26.17,0-26.17,24.31v45.09H597.06V405.27h23.81v17.9A39.18,39.18,0,0,1,634.72,409.07Z"/><path class="cls-2" d="M334.3,0A156.14,156.14,0,0,0,203.49,241.44l-40,70.9H334.3A156.17,156.17,0,1,0,334.3,0Zm0,251.34a93.95,93.95,0,1,1,93.95-94A93.77,93.77,0,0,1,334.3,251.34Z"/><path class="cls-2" d="M334.3,92a65.35,65.35,0,1,0,65.35,65.35A65.35,65.35,0,0,0,334.3,92Z"/><path class="cls-1" d="M334.3,251.33a94,94,0,0,0,93.95-94h-28.6A65.35,65.35,0,1,1,334.3,92V63.46a93.94,93.94,0,1,0,0,187.87Z"/></svg>